<?xml version="1.0" encoding="UTF-8"?> <svg xmlns="http://www.w3.org/2000/svg" width="138" height="23" viewBox="0 0 138 23" fill="none"><path fill-rule="evenodd" clip-rule="evenodd" d="M63.955 1.29347L61.5344 2.56409V12.673V22.7819H64.1412H66.748V19.9313C66.748 17.2966 66.9548 16.465 67.3525 17.4999C67.4411 17.7304 68.2073 19.0122 69.0548 20.348L70.5961 22.7769L73.9151 22.7794L77.2339 22.7819L76.6292 21.9763C76.2965 21.5333 75.2026 20.0074 74.1984 18.5853L72.3724 16.0002L72.9635 15.6108C75.0172 14.2586 75.6783 12.9459 75.1996 11.1711C74.7572 9.5309 73.578 8.83734 71.2895 8.87155C70.2254 8.88741 69.1998 9.09365 68.2197 9.48901L66.748 10.0827V5.02996C66.748 2.25102 66.6643 -0.012589 66.5618 5.26943e-05C66.4592 0.0126944 65.2864 0.594708 63.955 1.29347ZM80.5887 1.26447L78.1682 2.49964V12.6492V22.7987L80.7759 22.7283C82.2104 22.6897 83.3835 22.5742 83.3827 22.472C83.3822 22.3699 83.3817 17.2666 83.3817 11.1317C83.3817 4.99675 83.298 -0.0111017 83.1955 0.00327509C83.093 0.0176519 81.9202 0.585289 80.5887 1.26447ZM0.0111201 0.906785C0.0565526 1.14549 0.337837 1.37527 0.635755 1.41791C1.61938 1.55845 1.72961 2.60375 1.65141 11.0449L1.57842 18.9398L2.19908 20.1789C3.30336 22.3835 5.12761 23.1453 8.90223 22.9777C12.9199 22.7992 15.3613 21.2029 16.2422 18.1776C16.873 16.0106 16.6583 12.8158 15.7814 11.3218C14.7946 9.64021 13.6478 9.02424 11.509 9.02672C9.79648 9.02845 9.13659 9.23394 7.59884 10.2443L6.91611 10.6929V6.43418C6.91611 3.98739 6.80737 1.97265 6.6604 1.69875C6.16958 0.783094 5.10254 0.473001 2.44139 0.473001C0.181926 0.473001 -0.0633594 0.516875 0.0111201 0.906785ZM86.8865 2.11667C86.5684 2.33901 86.1486 2.90244 85.9535 3.36894C85.1474 5.29519 86.4053 7.16566 88.5064 7.16566C89.8778 7.16566 90.4655 6.86896 90.9513 5.93124C91.6452 4.59147 91.3565 3.0529 90.242 2.15162C89.5561 1.59687 87.6578 1.57704 86.8865 2.11667ZM16.7846 9.04184C16.445 9.38738 16.5917 9.8923 17.0329 9.89602C18.1831 9.90619 18.2052 10.0202 18.3363 16.6375L18.4604 22.9058H21.0672H23.674L23.7408 17.541C23.8182 11.3255 23.8897 11.1079 25.4896 12.2149C26.6482 13.0168 27.0576 13.0287 27.9221 12.2863C29.8732 10.6107 27.4603 8.02257 25.0886 9.24733C24.7194 9.4377 24.213 9.81943 23.963 10.0953C23.5091 10.596 23.5067 10.5953 22.811 9.81819C22.1278 9.05473 22.063 9.03738 19.5424 8.94591C18.128 8.8946 16.8869 8.93773 16.7846 9.04184ZM33.3146 9.3445C30.7783 10.2495 28.9933 12.1787 28.5008 14.5469C27.3103 20.2721 33.8256 24.8544 39.3318 22.1647C40.9242 21.3868 42.7102 19.4829 43.1159 18.1307C44.1822 14.5777 42.5754 11.0613 39.2032 9.56833C37.6041 8.8604 34.9539 8.75976 33.3146 9.3445ZM49.7366 9.34722C47.3098 10.1853 45.7048 11.8577 44.998 14.2854C44.3416 16.5396 44.9076 18.5452 46.7567 20.519C48.3267 22.1947 49.9588 22.8887 52.3486 22.8964C54.5698 22.9038 56.4298 22.1609 57.9226 20.6702C59.2764 19.3188 59.7846 18.0353 59.7911 15.9519C59.7956 14.5606 59.6652 13.9406 59.154 12.9161C57.5247 9.65187 53.3916 8.08553 49.7366 9.34722ZM114.345 9.16875C112.317 9.65112 110.617 11.126 109.653 13.2386C108.869 14.9567 108.859 17.7629 109.632 19.2209C110.324 20.5265 111.462 21.662 112.768 22.3508C114.16 23.0853 117.318 23.1282 118.722 22.4321C120.162 21.7185 121.366 20.4808 121.366 19.7156V19.0627L120.439 19.559C118.063 20.8303 115.105 19.5429 114.054 16.7803C113.327 14.8689 113.362 14.8498 117.635 14.8498H121.366V14.1431C121.366 13.1668 120.909 11.8971 120.228 10.979C119.171 9.55693 116.355 8.69035 114.345 9.16875ZM88.5851 9.9808C87.419 10.4262 86.3299 10.8736 86.1645 10.9758C85.9436 11.1121 85.8644 12.6943 85.8644 16.9714V22.7819H88.5953H91.3262V15.9653C91.3262 10.6711 91.2569 9.15115 91.0159 9.16008C90.8453 9.16628 89.7514 9.53561 88.5851 9.9808ZM96.2915 9.93568C95.2674 10.3514 94.29 10.804 94.1192 10.9418C93.8868 11.1295 93.8088 12.6519 93.8088 16.9955V22.7987L96.4777 22.7283L99.1465 22.6579L99.2012 17.9483C99.2309 15.358 99.259 12.9875 99.2632 12.6809C99.2717 12.0449 100.081 11.1317 100.636 11.1317C100.841 11.1317 101.232 11.3548 101.505 11.6274C101.959 12.0811 102.002 12.4549 102.003 16.0272C102.005 22.3169 102.194 22.616 106.247 22.7417C108.606 22.8151 108.953 22.7744 108.953 22.4259C108.953 22.2058 108.648 21.9101 108.275 21.7688C107.903 21.6273 107.513 21.3791 107.41 21.217C107.307 21.0552 107.221 19.0161 107.219 16.6859C107.215 12.7451 107.175 12.3735 106.643 11.3696C105.817 9.80976 104.363 9.08001 102.324 9.20222C101.034 9.27955 100.621 9.42531 99.7791 10.1008L98.7741 10.9071V10.0279C98.7741 8.96326 98.6947 8.96029 96.2915 9.93568ZM125.338 9.96642C124.314 10.4029 123.337 10.8501 123.166 10.9604C122.932 11.1114 122.856 12.5969 122.856 16.9798V22.7987L125.484 22.7283L128.111 22.6579L128.1 17.9483C128.086 12.6266 128.274 11.6597 129.399 11.266C130.008 11.0524 130.173 11.099 130.578 11.5979C130.995 12.112 131.049 12.6199 131.05 16.0548C131.052 22.3136 131.244 22.6163 135.294 22.7417C137.899 22.8225 138 22.8064 138 22.3079C138 21.9619 137.841 21.7904 137.521 21.7904C136.388 21.7904 136.262 21.2852 136.262 16.7302C136.262 12.7392 136.223 12.3758 135.69 11.3696C134.867 9.81546 133.409 9.08026 131.389 9.20123C130.205 9.27212 129.671 9.44167 128.985 9.96419C128.499 10.3335 128.039 10.6359 127.962 10.6359C127.884 10.6359 127.821 10.3013 127.821 9.8923C127.821 8.96921 127.668 8.97392 125.338 9.96642ZM37.3162 10.8838C37.7725 11.6629 37.8243 12.1681 37.8248 15.8413C37.8251 20.3812 37.6061 21.3551 36.4984 21.7386C35.6505 22.0323 34.8762 21.6902 34.4544 20.8356C34.08 20.0771 33.8385 14.509 34.0919 12.4834C34.3092 10.7475 35.0061 9.83852 36.0418 9.94064C36.6148 9.99716 36.9361 10.2351 37.3162 10.8838ZM53.7141 11.0077C54.1505 11.879 54.2106 12.495 54.2106 16.0892C54.2106 19.5072 54.1396 20.3086 53.7789 20.9672C53.3173 21.8097 52.5668 22.0774 51.6932 21.7108C50.7523 21.3159 50.5166 20.3792 50.4131 16.6244C50.2726 11.5382 50.8111 9.78126 52.4601 9.94213C53.0634 10.0011 53.3186 10.2183 53.7141 11.0077ZM116.895 10.535C117.143 10.7767 117.266 11.3979 117.268 12.4028L117.27 13.9084L115.532 13.9124C113.818 13.9163 113.793 13.9069 113.712 13.2317C113.609 12.3701 114.321 10.4704 114.869 10.1429C115.371 9.84298 116.39 10.04 116.895 10.535ZM69.7696 11.294C71.0166 12.4209 69.2175 15.3456 67.2773 15.3456C66.7845 15.3456 66.748 15.2184 66.748 13.5006C66.748 11.8751 66.8135 11.6096 67.2999 11.2698C68.0201 10.7658 69.1981 10.7775 69.7696 11.294ZM10.332 11.9373C11.7982 13.5001 11.9388 17.5135 10.618 20.0986C9.87047 21.5613 8.14627 22.2395 7.30614 21.401C6.98066 21.0757 6.91611 20.2781 6.91611 16.5812C6.91611 12.2846 6.93275 12.1398 7.46801 11.7655C8.29622 11.1862 9.70661 11.2707 10.332 11.9373Z" fill="black"></path></svg> 